# xmcd
#
# Track frame offsets:
#	150
#	18550
#	39024
#	52859
#	73463
#	100822
#	121016
#	141255
#	159145
#	175798
#
# Disc length: 2693 seconds
#
# Revision: 0
# Processed by: cddbd v1.5.1PL0 Copyright (c) Steve Scherf et al.
# Submitted via: dBpowerAMP V4.0
#
DISCID=770a830a
DTITLE=Simply Red - Picture Book
DYEAR=1990
DGENRE=Rock/Pop
TTITLE0=Come To My Aid
TTITLE1=Sad Old Red
TTITLE2=Look At You Now
TTITLE3=Heaven
TTITLE4=Jericho
TTITLE5=Money's Too Tight (To Mention)
TTITLE6=Holding Back The Years
TTITLE7=Red Box (Open Up The)
TTITLE8=No Direction
TTITLE9=Picture Book
EXTD=
EXTT0=
EXTT1=
EXTT2=
EXTT3=
EXTT4=
EXTT5=
EXTT6=
EXTT7=
EXTT8=
EXTT9=
PLAYORDER=
